# Blender v2.80 (sub 75) OBJ File: 'Lantern 01 Blender 2_79.blend'
# www.blender.org
o Lantern_Low_Poly_Cube.001
v -0.026848 1.946789 0.700774
v 0.026848 1.946789 0.700774
v 0.026848 1.946789 0.653640
v -0.026848 1.946789 0.653640
v -0.026848 1.906879 0.653640
v -0.026848 1.906879 0.700774
v 0.026848 1.906879 0.700774
v 0.026848 1.906879 0.653640
v -0.109178 1.799744 0.558508
v -0.109178 1.799744 0.795906
v 0.135254 1.799868 0.770009
v 0.135254 1.799868 0.584405
v -0.065784 1.595444 0.596597
v -0.065784 1.595444 0.757816
v 0.091808 1.595320 0.731873
v 0.091808 1.595320 0.622541
v 0.109178 1.799744 0.795906
v 0.109178 1.799744 0.558508
v 0.065784 1.595444 0.757816
v 0.065784 1.595444 0.596597
v 0.140552 1.824812 0.800580
v -0.135254 1.799868 0.770009
v 0.086510 1.570376 0.753143
v -0.091808 1.595320 0.731873
v 0.140552 1.824812 0.553834
v -0.135254 1.799868 0.584405
v 0.086510 1.570376 0.601271
v -0.091808 1.595320 0.622541
v -0.140552 1.824812 0.553834
v -0.140552 1.824812 0.800580
v -0.086510 1.570376 0.601271
v -0.086510 1.570376 0.753143
v -0.115691 1.804024 0.584405
v -0.115691 1.804024 0.770009
v -0.072244 1.599475 0.622541
v -0.072244 1.599475 0.731873
v 0.109178 1.803410 0.776245
v -0.109178 1.803410 0.776245
v 0.065784 1.599110 0.738155
v -0.065784 1.599110 0.738155
v 0.115691 1.804024 0.770009
v 0.115691 1.804024 0.584405
v 0.072244 1.599475 0.731873
v 0.072244 1.599475 0.622541
v 0.109178 1.803410 0.578169
v -0.109178 1.803410 0.578169
v 0.065784 1.599110 0.616258
v -0.065784 1.599110 0.616258
v -0.139500 0.000000 0.139500
v -0.138146 0.010475 0.149278
v -0.149278 0.010475 0.138351
v -0.111724 0.393229 0.122880
v -0.122880 0.393229 0.111938
v -0.139500 0.000000 -0.139500
v -0.149278 0.010475 -0.138351
v -0.138146 0.010475 -0.149278
v -0.122880 0.393229 -0.111938
v -0.111724 0.393229 -0.122880
v 0.139500 0.000000 0.139500
v 0.149278 0.010475 0.138351
v 0.138146 0.010475 0.149278
v 0.122880 0.393229 0.111938
v 0.111724 0.393229 0.122880
v 0.139500 0.000000 -0.139500
v 0.138146 0.010475 -0.149278
v 0.149278 0.010475 -0.138351
v 0.111724 0.393229 -0.122880
v 0.122880 0.393229 -0.111938
v -0.074862 0.425809 0.086016
v -0.086016 0.425809 0.075110
v -0.086016 0.425809 -0.075110
v -0.074862 0.425809 -0.086016
v 0.074862 0.425809 -0.086016
v 0.086016 0.425809 -0.075110
v 0.086016 0.425809 0.075110
v 0.074862 0.425809 0.086016
v -0.086016 2.223168 0.075222
v -0.075516 2.223168 0.086016
v -0.075516 2.233668 0.075516
v -0.086016 2.223168 -0.075222
v -0.075516 2.233668 -0.075516
v -0.075516 2.223168 -0.086016
v 0.075516 2.223168 -0.086016
v 0.075516 2.233668 -0.075516
v 0.086016 2.223168 -0.075222
v 0.086016 2.223168 0.075222
v 0.075516 2.233668 0.075516
v 0.075516 2.223168 0.086016
v 0.074887 1.924289 0.086016
v 0.086016 1.924289 0.075174
v 0.075516 2.086584 0.086016
v 0.086016 2.086584 0.075210
v -0.086016 2.086584 0.075210
v -0.075516 2.086584 0.086016
v -0.074887 1.924289 0.086016
v -0.086016 1.924289 0.075174
v -0.074887 1.924289 -0.086016
v -0.086016 1.924289 -0.075174
v -0.075516 2.086584 -0.086016
v -0.086016 2.086584 -0.075210
v 0.086016 2.086584 -0.075210
v 0.075516 2.086584 -0.086016
v 0.074887 1.924289 -0.086016
v 0.086016 1.924289 -0.075174
v -0.056016 2.064084 -0.086016
v -0.063516 2.056584 -0.086016
v -0.067046 2.070702 -0.086016
v 0.063516 2.056584 -0.086016
v 0.056016 2.064084 -0.086016
v 0.067046 2.070702 -0.086016
v 0.056016 1.946789 -0.086016
v 0.063516 1.954289 -0.086016
v 0.066899 1.940095 -0.086016
v -0.063516 1.954289 -0.086016
v -0.056016 1.946789 -0.086016
v -0.066899 1.940095 -0.086016
v -0.063516 1.954289 -0.257479
v -0.056016 1.954289 -0.264979
v -0.056016 1.946789 -0.257479
v -0.063516 2.056584 -0.257479
v -0.056016 2.064084 -0.257479
v -0.056016 2.056584 -0.264979
v 0.056016 2.064084 -0.257479
v 0.063516 2.056584 -0.257479
v 0.056016 2.056584 -0.264979
v 0.063516 1.954289 -0.257479
v 0.056016 1.946789 -0.257479
v 0.056016 1.954289 -0.264979
v 0.056016 2.064084 0.086016
v 0.063516 2.056584 0.086016
v 0.067046 2.070702 0.086016
v -0.063516 2.056584 0.086016
v -0.056016 2.064084 0.086016
v -0.067046 2.070702 0.086016
v -0.056016 1.946789 0.086016
v -0.063516 1.954289 0.086016
v -0.066899 1.940095 0.086016
v 0.063516 1.954289 0.086016
v 0.056016 1.946789 0.086016
v 0.066899 1.940095 0.086016
v 0.063516 1.954289 0.754248
v 0.056016 1.954289 0.761748
v 0.056016 1.946789 0.754248
v 0.063516 2.056584 0.754248
v 0.056016 2.064084 0.754248
v 0.056016 2.056584 0.761748
v -0.056016 2.064084 0.754248
v -0.063516 2.056584 0.754248
v -0.056016 2.056584 0.761748
v -0.063516 1.954289 0.754248
v -0.056016 1.946789 0.754248
v -0.056016 1.954289 0.761748
v -0.056016 2.064084 0.720457
v -0.063516 2.056584 0.720457
v 0.063516 2.056584 0.720457
v 0.056016 2.064084 0.720457
v -0.063516 2.056584 0.633957
v -0.056016 2.064084 0.633957
v 0.063516 2.056584 0.633957
v 0.056016 2.064084 0.633957
v -0.063516 1.954289 0.633957
v -0.056016 1.946789 0.633957
v -0.063516 1.954289 0.720457
v -0.056016 1.946789 0.720457
v 0.056016 1.946789 0.720457
v 0.063516 1.954289 0.720457
v 0.063516 1.954289 0.633957
v 0.056016 1.946789 0.633957
vt 0.722657 0.436279
vt 0.548100 0.549963
vt 0.548100 0.424258
vt 0.491742 0.406824
vt 0.514126 0.491715
vt 0.491742 0.508487
vt 0.492224 0.515581
vt 0.526054 0.596815
vt 0.506177 0.616479
vt 0.506177 0.298832
vt 0.516692 0.386198
vt 0.492224 0.399730
vt 0.317666 0.387722
vt 0.334911 0.263016
vt 0.883166 0.234869
vt 0.240990 0.171803
vt 0.882420 0.170542
vt 0.159509 0.164527
vt 0.091054 0.089915
vt 0.158799 0.089660
vt 0.745041 0.521171
vt 0.722657 0.537942
vt 0.317185 0.520508
vt 0.317185 0.394803
vt 0.334911 0.652295
vt 0.317666 0.527589
vt 0.906454 0.083243
vt 0.979171 0.015736
vt 0.984551 0.082416
vt 0.158767 0.082139
vt 0.091730 0.007763
vt 0.159702 0.008646
vt 0.677067 0.830761
vt 0.427646 0.779480
vt 0.677084 0.779752
vt 0.084508 0.165839
vt 0.007763 0.090914
vt 0.083598 0.090004
vt 0.677089 0.723535
vt 0.428054 0.672734
vt 0.677022 0.672731
vt 0.388105 0.774600
vt 0.372715 0.727876
vt 0.388065 0.727975
vt 0.170129 0.099490
vt 0.427566 0.830577
vt 0.388103 0.779445
vt 0.882339 0.159359
vt 0.240488 0.090168
vt 0.882314 0.095238
vt 0.882346 0.084050
vt 0.240299 0.011396
vt 0.883166 0.019604
vt 0.162187 0.245081
vt 0.092105 0.173212
vt 0.159610 0.172016
vt 0.913280 0.778743
vt 0.983147 0.167371
vt 0.974410 0.778723
vt 0.648745 0.263016
vt 0.597773 0.341028
vt 0.597773 0.263016
vt 0.914542 0.152484
vt 0.909135 0.167762
vt 0.546406 0.345853
vt 0.592948 0.396825
vt 0.546406 0.396825
vt 0.755911 0.263016
vt 0.704938 0.341028
vt 0.704939 0.263016
vt 0.700113 0.263016
vt 0.653571 0.341028
vt 0.653571 0.263016
vt 0.240869 0.162890
vt 0.229679 0.153734
vt 0.592948 0.263016
vt 0.546406 0.341028
vt 0.546406 0.263016
vt 0.225627 0.095802
vt 0.388065 0.723147
vt 0.373764 0.672593
vt 0.388999 0.672807
vt 0.316791 0.882068
vt 0.367860 0.835408
vt 0.367875 0.882052
vt 0.388110 0.830565
vt 0.372675 0.779440
vt 0.388119 0.882045
vt 0.372696 0.835406
vt 0.388110 0.835403
vt 0.427550 0.882032
vt 0.427564 0.835411
vt 0.009180 0.523589
vt 0.025882 0.546187
vt 0.007763 0.544987
vt 0.398191 0.687018
vt 0.418928 0.686612
vt 0.427652 0.774641
vt 0.427864 0.727906
vt 0.977481 0.152081
vt 0.974171 0.094204
vt 0.918429 0.156230
vt 0.677038 0.882169
vt 0.677063 0.835590
vt 0.419247 0.686701
vt 0.427871 0.723050
vt 0.418255 0.708294
vt 0.417983 0.708516
vt 0.397557 0.708427
vt 0.397206 0.708340
vt 0.397875 0.687099
vt 0.047019 0.663316
vt 0.126789 0.717110
vt 0.054707 0.686506
vt 0.144788 0.263016
vt 0.140978 0.290856
vt 0.128839 0.277352
vt 0.029784 0.669030
vt 0.037472 0.692220
vt 0.058040 0.381559
vt 0.063693 0.411469
vt 0.047362 0.403532
vt 0.774012 0.552403
vt 0.870785 0.544004
vt 0.775644 0.561355
vt 0.074372 0.389495
vt 0.093959 0.483694
vt 0.027298 0.524789
vt 0.086542 0.595712
vt 0.233349 0.293611
vt 0.149859 0.368661
vt 0.206054 0.581995
vt 0.296413 0.634971
vt 0.230826 0.656715
vt 0.766545 0.443480
vt 0.775644 0.493223
vt 0.766545 0.493223
vt 0.237834 0.732636
vt 0.145141 0.761286
vt 0.143281 0.752379
vt 0.109556 0.732636
vt 0.016863 0.761286
vt 0.015003 0.752379
vt 0.099038 0.582600
vt 0.104616 0.498339
vt 0.198403 0.521937
vt 0.195117 0.571572
vt 0.210619 0.513047
vt 0.110633 0.475926
vt 0.154055 0.386571
vt 0.204305 0.499495
vt 0.245025 0.442245
vt 0.230469 0.445655
vt 0.133309 0.699910
vt 0.102047 0.605610
vt 0.216846 0.651415
vt 0.198009 0.594596
vt 0.167959 0.367991
vt 0.230761 0.311538
vt 0.281460 0.393893
vt 0.244466 0.427147
vt 0.296413 0.396052
vt 0.870785 0.510574
vt 0.775644 0.443480
vt 0.870785 0.426129
vt 0.869152 0.519526
vt 0.879884 0.510574
vt 0.879884 0.426129
vt 0.869152 0.417177
vt 0.774012 0.434528
vt 0.111416 0.840890
vt 0.111416 0.741544
vt 0.120515 0.840890
vt 0.120515 0.741544
vt 0.015003 0.830054
vt 0.109556 0.849797
vt 0.007763 0.761286
vt 0.016863 0.821147
vt 0.007763 0.821147
vt 0.870785 0.628449
vt 0.766545 0.561355
vt 0.775644 0.611098
vt 0.766545 0.611098
vt 0.869152 0.637401
vt 0.879884 0.628449
vt 0.879884 0.544004
vt 0.239694 0.840890
vt 0.239694 0.741544
vt 0.136041 0.761286
vt 0.145141 0.821147
vt 0.136041 0.821147
vt 0.237834 0.849797
vt 0.248793 0.840890
vt 0.248793 0.741544
vt 0.541580 0.550579
vt 0.544824 0.556259
vt 0.311940 0.390882
vt 0.541580 0.423642
vt 0.544824 0.417962
vt 0.311940 0.524428
vt 0.986609 0.013890
vt 0.980438 0.008215
vt 0.085691 0.169600
vt 0.091964 0.165750
vt 0.084681 0.086193
vt 0.091033 0.082431
vt 0.902433 0.013238
vt 0.908479 0.007763
vt 0.909781 0.014860
vt 0.826073 0.801278
vt 0.699657 0.807798
vt 0.699134 0.801278
vt 0.723139 0.545036
vt 0.548581 0.557044
vt 0.692615 0.674957
vt 0.699134 0.674340
vt 0.825550 0.667821
vt 0.826073 0.674340
vt 0.723139 0.429185
vt 0.520104 0.513447
vt 0.751019 0.431319
vt 0.750547 0.438402
vt 0.751019 0.542902
vt 0.520104 0.401864
vt 0.519633 0.408946
vt 0.008910 0.174203
vt 0.008673 0.166749
vt 0.083361 0.082550
vt 0.898692 0.083106
vt 0.985066 0.778809
vt 0.992237 0.167506
vt 0.240519 0.081225
vt 0.900084 0.167970
vt 0.992237 0.082118
vt 0.902618 0.778825
vt 0.170632 0.154617
vt 0.174394 0.158304
vt 0.167403 0.160164
vt 0.173912 0.095719
vt 0.166801 0.093935
vt 0.229362 0.099545
vt 0.232683 0.094118
vt 0.226020 0.157487
vt 0.233047 0.159064
vt 0.760736 0.341028
vt 0.758323 0.345207
vt 0.755911 0.341028
vt 0.592948 0.341028
vt 0.595361 0.345207
vt 0.648745 0.341028
vt 0.651158 0.345207
vt 0.700113 0.341028
vt 0.702526 0.345207
vt 0.597773 0.396825
vt 0.592948 0.345853
vt 0.597773 0.345853
vt 0.546406 0.401651
vt 0.592948 0.401651
vt 0.541580 0.345853
vt 0.916932 0.094824
vt 0.913106 0.098756
vt 0.911104 0.091488
vt 0.978073 0.098189
vt 0.980000 0.090770
vt 0.973586 0.155902
vt 0.979161 0.159356
vt 0.912982 0.159727
vt 0.368562 0.725428
vt 0.372758 0.723056
vt 0.372676 0.774596
vt 0.368481 0.777017
vt 0.372695 0.830568
vt 0.368506 0.832989
vt 0.373827 0.667821
vt 0.369662 0.670152
vt 0.311940 0.835426
vt 0.311954 0.882069
vt 0.367858 0.830572
vt 0.316776 0.835424
vt 0.316774 0.830588
vt 0.372711 0.882050
vt 0.316792 0.886904
vt 0.389031 0.668022
vt 0.428050 0.667938
vt 0.677022 0.667925
vt 0.677089 0.774923
vt 0.677081 0.728359
vt 0.514126 0.423595
vt 0.516692 0.529112
vt 0.526054 0.318496
vt 0.241318 0.241116
vt 0.745041 0.453051
vt 0.094753 0.247490
vt 0.156927 0.276520
vt 0.869152 0.535052
vt 0.271642 0.560250
vt 0.774011 0.502175
vt 0.774012 0.620050
vt 0.143281 0.830054
vt 0.825550 0.807798
vt 0.692615 0.800662
vt 0.699657 0.667821
vt 0.548581 0.417177
vt 0.519633 0.506364
vt 0.750547 0.535820
vt 0.084449 0.173297
vt 0.007822 0.083456
vt 0.541580 0.396825
vt 0.760736 0.263016
vt 0.367876 0.886888
vn 0.0000 0.0688 0.9976
vn 0.0000 0.7493 -0.6622
vn 0.6622 0.7493 0.0000
vn -0.6622 0.7493 0.0000
vn -0.9976 0.0688 0.0000
vn -1.0000 -0.0000 0.0000
vn 0.0000 0.0000 -1.0000
vn 0.0000 0.7493 0.6622
vn 0.0000 0.0688 -0.9976
vn 0.9976 0.0688 0.0000
vn 0.0000 0.0000 1.0000
vn 1.0000 -0.0000 0.0000
vn 0.0000 1.0000 0.0000
vn 0.0000 -1.0000 0.0000
vn 0.0000 0.7724 -0.6351
vn 0.0373 0.1755 0.9838
vn 0.0000 0.7724 0.6351
vn 0.5852 0.8109 0.0000
vn -0.5852 0.8109 0.0000
vn -0.2078 0.9782 0.0000
vn 0.9789 0.2009 -0.0375
vn -0.9789 0.2009 0.0375
vn 0.9782 -0.2078 0.0000
vn 0.0000 -0.1833 0.9831
vn 0.0000 -0.1833 -0.9831
vn -0.9782 -0.2078 0.0000
vn -0.0373 0.1755 0.9838
vn 0.2078 -0.9782 0.0000
vn -0.0373 0.1755 -0.9838
vn 0.0000 -0.9831 -0.1833
vn 0.9789 0.2009 0.0375
vn 0.0000 0.9831 0.1833
vn 0.2078 0.9782 0.0000
vn 0.0373 0.1755 -0.9838
vn -0.2078 -0.9782 -0.0000
vn 0.0000 0.9831 -0.1833
vn -0.9789 0.2009 -0.0375
vn 0.0000 -0.9831 0.1833
vn -0.6071 -0.4988 0.6185
vn -0.6071 -0.4988 -0.6185
vn 0.6071 -0.4988 0.6185
vn 0.6071 -0.4988 -0.6185
vn -0.5880 0.5720 0.5720
vn -0.5880 0.5720 -0.5720
vn 0.5880 0.5720 -0.5720
vn 0.5880 0.5720 0.5720
vn -0.7310 -0.6823 0.0000
vn -0.6972 0.0971 0.7103
vn -0.6969 0.0971 -0.7105
vn 0.0000 -0.6823 -0.7310
vn 0.6969 0.0971 -0.7105
vn 0.7310 -0.6823 0.0000
vn 0.6969 0.0971 0.7105
vn 0.0000 -0.6823 0.7310
vn 0.3712 0.8479 -0.3785
vn 0.3705 0.8480 0.3790
vn -0.3712 0.8479 0.3785
vn -0.3705 0.8480 -0.3790
vn -0.7071 0.7071 0.0000
vn 0.0000 0.7071 -0.7071
vn 0.7071 0.7071 0.0000
vn 0.0000 0.7071 0.7071
vn 0.7172 -0.0001 0.6969
vn -0.6978 -0.0000 0.7163
vn -0.7172 -0.0001 -0.6969
vn 0.6978 -0.0000 -0.7163
vn 0.6978 -0.0027 0.7163
vn -0.7168 0.0000 0.6973
vn -0.6978 -0.0027 -0.7163
vn 0.7168 0.0000 -0.6973
vn -0.7172 -0.0002 0.6969
vn 0.7172 -0.0002 -0.6969
vn 0.6991 -0.0000 0.7150
vn -0.6991 -0.0000 -0.7150
vn -0.5773 -0.5773 -0.5774
vn -0.5774 0.5774 -0.5773
vn 0.5774 0.5774 -0.5773
vn 0.5773 -0.5773 -0.5774
vn -0.7071 0.0000 -0.7071
vn 0.7071 0.0000 -0.7071
vn 0.0000 -0.7071 -0.7071
vn -0.7071 -0.7071 0.0000
vn 0.7071 -0.7071 0.0000
vn 0.5773 -0.5773 0.5774
vn 0.5774 0.5774 0.5773
vn -0.5774 0.5774 0.5773
vn -0.5773 -0.5773 0.5774
vn 0.7071 0.0000 0.7071
vn -0.7071 0.0000 0.7071
vn 0.0000 -0.7071 0.7071
vn -0.6969 0.0971 0.7105
vn -0.6972 0.0971 -0.7103
vn 0.6972 0.0971 -0.7103
vn 0.6972 0.0971 0.7103
vn 0.3705 0.8480 -0.3790
vn 0.3712 0.8479 0.3785
vn -0.3705 0.8480 0.3790
vn -0.3712 0.8479 -0.3785
vn 0.7168 0.0000 0.6973
vn -0.6991 -0.0000 0.7150
vn -0.7168 0.0000 -0.6973
vn 0.6991 -0.0000 -0.7150
vn 0.7172 -0.0002 0.6969
vn -0.7172 -0.0001 0.6969
vn -0.7172 -0.0002 -0.6969
vn 0.7172 -0.0001 -0.6969
vn -0.6978 -0.0027 0.7163
vn 0.6978 -0.0027 -0.7163
vn 0.6978 -0.0000 0.7163
vn -0.6978 -0.0000 -0.7163
s off
f 63/1/1 50/2/1 61/3/1
f 58/4/2 73/5/2 67/6/2
f 68/7/3 75/8/3 62/9/3
f 53/10/4 71/11/4 57/12/4
f 53/10/5 55/13/5 51/14/5
f 70/15/6 98/16/6 71/17/6
f 99/18/7 83/19/7 102/20/7
f 63/1/8 69/21/8 52/22/8
f 58/4/9 65/23/9 56/24/9
f 68/7/10 60/25/10 66/26/10
f 91/27/11 78/28/11 94/29/11
f 101/30/12 86/31/12 92/32/12
f 133/33/13 160/34/13 129/35/13
f 81/36/13 87/37/13 84/38/13
f 139/39/14 162/40/14 135/41/14
f 155/42/12 141/43/12 166/44/12
f 99/18/7 102/20/7 109/45/7
f 158/46/13 156/47/13 160/34/13
f 72/48/7 103/49/7 73/50/7
f 74/51/12 90/52/12 75/53/12
f 93/54/6 80/55/6 100/56/6
f 76/57/11 95/58/11 69/59/11
f 90/52/12 101/30/12 92/32/12
f 98/16/6 93/54/6 100/56/6
f 109/60/13 121/61/13 105/62/13
f 91/27/11 138/63/11 89/64/11
f 118/65/7 125/66/7 128/67/7
f 115/68/14 127/69/14 111/70/14
f 112/71/12 124/72/12 108/73/12
f 103/49/7 97/74/7 115/75/7
f 106/76/6 117/77/6 114/78/6
f 102/20/7 103/49/7 112/79/7
f 165/80/14 151/81/14 164/82/14
f 142/83/11 149/84/11 152/85/11
f 153/86/13 145/87/13 156/47/13
f 163/88/6 148/89/6 154/90/6
f 161/91/6 154/90/6 157/92/6
f 2/93/12 8/94/12 3/95/12
f 1/96/14 162/40/14 4/97/14
f 159/98/12 166/44/12 167/99/12
f 94/29/11 95/58/11 136/100/11
f 91/27/11 94/29/11 133/101/11
f 95/58/11 89/64/11 139/102/11
f 136/103/6 157/92/6 132/104/6
f 4/105/14 168/106/14 3/107/14
f 3/108/14 165/80/14 2/109/14
f 2/110/14 164/82/14 1/111/14
f 8/112/15 29/113/15 5/114/15
f 4/115/6 6/116/6 1/117/6
f 3/118/7 5/114/7 4/119/7
f 1/120/11 7/121/11 2/122/11
f 16/123/16 42/124/16 44/125/16
f 6/126/17 21/127/17 7/121/17
f 7/128/18 25/129/18 8/94/18
f 6/116/19 29/130/19 30/131/19
f 27/132/14 32/133/14 31/134/14
f 24/135/20 35/136/20 28/137/20
f 9/138/21 48/139/21 13/140/21
f 17/141/22 39/142/22 19/143/22
f 12/144/23 21/127/23 11/145/23
f 15/146/23 27/132/23 16/147/23
f 11/145/23 23/148/23 15/146/23
f 12/144/23 27/132/23 25/129/23
f 17/149/24 30/131/24 10/150/24
f 19/151/24 32/152/24 23/148/24
f 17/149/24 23/148/24 21/127/24
f 10/150/24 32/152/24 14/153/24
f 9/154/25 25/129/25 18/155/25
f 13/156/25 27/132/25 31/134/25
f 18/155/25 27/132/25 20/157/25
f 9/154/25 31/134/25 29/113/25
f 22/158/26 29/130/26 26/159/26
f 28/160/26 32/152/26 24/161/26
f 26/159/26 31/162/26 28/160/26
f 22/158/26 32/152/26 30/131/26
f 33/163/26 36/164/26 34/165/26
f 26/166/27 35/136/27 33/163/27
f 26/167/28 34/165/28 22/168/28
f 22/169/29 36/164/29 24/170/29
f 38/171/24 39/142/24 37/172/24
f 10/173/30 37/172/30 17/174/30
f 14/175/31 38/171/31 10/176/31
f 19/177/32 40/178/32 14/179/32
f 41/180/23 44/125/23 42/124/23
f 16/181/33 43/182/33 15/183/33
f 11/184/34 43/182/34 41/180/34
f 11/185/35 42/124/35 12/186/35
f 45/187/25 48/139/25 46/188/25
f 13/189/36 47/190/36 20/191/36
f 18/192/37 47/190/37 45/187/37
f 18/193/38 46/188/38 9/194/38
f 49/195/39 50/2/39 51/196/39
f 54/197/40 55/13/40 56/24/40
f 59/198/41 60/199/41 61/3/41
f 64/200/42 65/23/42 66/26/42
f 77/201/43 78/28/43 79/202/43
f 80/55/44 81/203/44 82/204/44
f 83/19/45 84/205/45 85/206/45
f 86/207/46 87/208/46 88/209/46
f 49/210/47 55/211/47 54/212/47
f 50/2/48 53/213/48 51/214/48
f 56/24/49 57/12/49 58/4/49
f 54/212/50 65/215/50 64/216/50
f 68/7/51 65/23/51 67/6/51
f 64/216/52 60/217/52 59/218/52
f 61/3/53 62/219/53 63/1/53
f 59/198/54 50/2/54 49/195/54
f 67/6/55 74/220/55 68/7/55
f 63/1/56 75/221/56 76/222/56
f 52/22/57 70/223/57 53/213/57
f 58/4/58 71/224/58 72/225/58
f 81/36/59 77/226/59 79/227/59
f 84/38/60 82/204/60 81/36/60
f 87/37/61 85/228/61 84/38/61
f 79/202/62 88/209/62 87/208/62
f 86/207/63 91/27/63 92/229/63
f 70/230/64 95/58/64 96/231/64
f 80/55/65 99/18/65 100/56/65
f 74/51/66 103/49/66 104/232/66
f 90/233/67 91/27/67 89/64/67
f 77/201/68 94/29/68 78/28/68
f 98/16/69 99/18/69 97/74/69
f 85/206/70 102/20/70 83/19/70
f 96/231/71 94/29/71 93/234/71
f 104/232/72 102/20/72 101/30/72
f 90/233/73 76/57/73 75/235/73
f 98/16/74 72/48/74 71/17/74
f 64/216/14 49/210/14 54/212/14
f 105/236/7 106/237/7 107/238/7
f 108/239/7 109/45/7 110/240/7
f 111/241/7 112/79/7 113/242/7
f 114/243/7 115/75/7 116/244/7
f 117/245/75 118/246/75 119/247/75
f 120/248/76 121/61/76 122/249/76
f 123/250/77 124/72/77 125/251/77
f 126/252/78 127/69/78 128/253/78
f 120/248/79 118/65/79 117/77/79
f 123/254/60 122/255/60 121/256/60
f 126/257/80 125/66/80 124/258/80
f 128/67/81 119/259/81 118/65/81
f 121/61/59 106/76/59 105/62/59
f 115/68/82 117/245/82 119/247/82
f 112/71/83 127/69/83 126/252/83
f 124/72/61 109/60/61 108/73/61
f 99/18/7 114/243/7 97/74/7
f 129/260/11 130/261/11 131/262/11
f 132/263/11 133/101/11 134/264/11
f 135/265/11 136/100/11 137/266/11
f 138/63/11 139/102/11 140/267/11
f 141/43/84 142/268/84 143/269/84
f 144/270/85 145/87/85 146/271/85
f 147/272/86 148/89/86 149/273/86
f 150/274/87 151/81/87 152/275/87
f 144/276/88 142/83/88 141/277/88
f 147/278/62 146/279/62 145/280/62
f 150/281/89 149/84/89 148/89/89
f 152/85/90 143/282/90 142/83/90
f 151/81/82 163/283/82 164/82/82
f 133/33/59 157/92/59 158/46/59
f 145/87/61 155/42/61 156/47/61
f 139/39/83 167/99/83 168/106/83
f 164/82/82 161/284/82 162/40/82
f 153/86/59 148/89/59 147/272/59
f 156/47/61 159/98/61 160/34/61
f 165/80/83 141/43/83 143/269/83
f 158/46/59 154/90/59 153/86/59
f 168/106/83 166/44/83 165/80/83
f 162/40/82 136/285/82 135/41/82
f 160/34/61 130/286/61 129/35/61
f 130/286/12 167/99/12 138/287/12
f 63/1/1 52/22/1 50/2/1
f 58/4/2 72/288/2 73/5/2
f 68/7/3 74/289/3 75/8/3
f 53/10/4 70/290/4 71/11/4
f 53/10/5 57/12/5 55/13/5
f 70/15/6 96/291/6 98/16/6
f 99/18/7 82/204/7 83/19/7
f 63/1/8 76/292/8 69/21/8
f 58/4/9 67/6/9 65/23/9
f 68/7/10 62/9/10 60/25/10
f 91/27/11 88/209/11 78/28/11
f 101/30/12 85/206/12 86/31/12
f 133/33/13 158/46/13 160/34/13
f 81/36/13 79/227/13 87/37/13
f 139/39/14 168/106/14 162/40/14
f 155/42/12 144/270/12 141/43/12
f 102/20/7 110/240/7 109/45/7
f 109/45/7 105/236/7 99/18/7
f 105/236/7 107/238/7 99/18/7
f 158/46/13 153/86/13 156/47/13
f 72/48/7 97/74/7 103/49/7
f 74/51/12 104/232/12 90/52/12
f 93/54/6 77/293/6 80/55/6
f 76/57/11 89/64/11 95/58/11
f 90/52/12 104/232/12 101/30/12
f 98/16/6 96/291/6 93/54/6
f 109/60/13 123/250/13 121/61/13
f 91/27/11 131/262/11 130/261/11
f 130/261/11 138/63/11 91/27/11
f 138/63/11 140/267/11 89/64/11
f 118/65/7 122/255/7 125/66/7
f 115/68/14 119/247/14 127/69/14
f 112/71/12 126/252/12 124/72/12
f 97/74/7 116/244/7 115/75/7
f 115/75/7 111/241/7 103/49/7
f 111/241/7 113/242/7 103/49/7
f 106/76/6 120/248/6 117/77/6
f 103/49/7 113/242/7 112/79/7
f 112/79/7 108/239/7 102/20/7
f 108/239/7 110/240/7 102/20/7
f 165/80/14 143/269/14 151/81/14
f 142/83/11 146/279/11 149/84/11
f 153/86/13 147/272/13 145/87/13
f 163/88/6 150/281/6 148/89/6
f 161/91/6 163/88/6 154/90/6
f 2/93/12 7/128/12 8/94/12
f 1/96/14 164/82/14 162/40/14
f 159/98/12 155/42/12 166/44/12
f 95/58/11 137/266/11 136/100/11
f 136/100/11 132/263/11 94/29/11
f 132/263/11 134/264/11 94/29/11
f 94/29/11 134/264/11 133/101/11
f 133/101/11 129/260/11 91/27/11
f 129/260/11 131/262/11 91/27/11
f 89/64/11 140/267/11 139/102/11
f 139/102/11 135/265/11 95/58/11
f 135/265/11 137/266/11 95/58/11
f 136/103/6 161/91/6 157/92/6
f 4/105/14 162/40/14 168/106/14
f 3/108/14 168/106/14 165/80/14
f 2/110/14 165/80/14 164/82/14
f 8/112/15 25/129/15 29/113/15
f 4/115/6 5/294/6 6/116/6
f 3/118/7 8/112/7 5/114/7
f 1/120/11 6/126/11 7/121/11
f 16/123/16 12/295/16 42/124/16
f 6/126/17 30/131/17 21/127/17
f 7/128/18 21/127/18 25/129/18
f 6/116/19 5/294/19 29/130/19
f 27/132/14 23/296/14 32/133/14
f 24/135/20 36/164/20 35/136/20
f 9/138/21 46/188/21 48/139/21
f 17/141/22 37/172/22 39/142/22
f 12/144/23 25/129/23 21/127/23
f 15/146/23 23/148/23 27/132/23
f 11/145/23 21/127/23 23/148/23
f 12/144/23 16/147/23 27/132/23
f 17/149/24 21/127/24 30/131/24
f 19/151/24 14/153/24 32/152/24
f 17/149/24 19/151/24 23/148/24
f 10/150/24 30/131/24 32/152/24
f 9/154/25 29/113/25 25/129/25
f 13/156/25 20/157/25 27/132/25
f 18/155/25 25/129/25 27/132/25
f 9/154/25 13/156/25 31/134/25
f 22/158/26 30/131/26 29/130/26
f 28/160/26 31/162/26 32/152/26
f 26/159/26 29/130/26 31/162/26
f 22/158/26 24/161/26 32/152/26
f 33/163/26 35/136/26 36/164/26
f 26/166/27 28/297/27 35/136/27
f 26/167/28 33/163/28 34/165/28
f 22/169/29 34/165/29 36/164/29
f 38/171/24 40/178/24 39/142/24
f 10/173/30 38/171/30 37/172/30
f 14/175/31 40/178/31 38/171/31
f 19/177/32 39/142/32 40/178/32
f 41/180/23 43/182/23 44/125/23
f 16/181/33 44/125/33 43/182/33
f 11/184/34 15/298/34 43/182/34
f 11/185/35 41/180/35 42/124/35
f 45/187/25 47/190/25 48/139/25
f 13/189/36 48/139/36 47/190/36
f 18/192/37 20/299/37 47/190/37
f 18/193/38 45/187/38 46/188/38
f 49/210/47 51/300/47 55/211/47
f 50/2/91 52/22/91 53/213/91
f 56/24/92 55/13/92 57/12/92
f 54/212/50 56/301/50 65/215/50
f 68/7/93 66/26/93 65/23/93
f 64/216/52 66/302/52 60/217/52
f 61/3/94 60/303/94 62/219/94
f 59/198/54 61/3/54 50/2/54
f 67/6/95 73/304/95 74/220/95
f 63/1/96 62/219/96 75/221/96
f 52/22/97 69/305/97 70/223/97
f 58/4/98 57/12/98 71/224/98
f 81/36/59 80/306/59 77/226/59
f 84/38/60 83/19/60 82/204/60
f 87/37/61 86/307/61 85/228/61
f 79/202/62 78/28/62 88/209/62
f 86/207/99 88/209/99 91/27/99
f 70/230/100 69/59/100 95/58/100
f 80/55/101 82/204/101 99/18/101
f 74/51/102 73/50/102 103/49/102
f 90/233/103 92/229/103 91/27/103
f 77/201/104 93/234/104 94/29/104
f 98/16/105 100/56/105 99/18/105
f 85/206/106 101/30/106 102/20/106
f 96/231/107 95/58/107 94/29/107
f 104/232/108 103/49/108 102/20/108
f 90/233/109 89/64/109 76/57/109
f 98/16/110 97/74/110 72/48/110
f 64/216/14 59/218/14 49/210/14
f 120/248/79 122/255/79 118/65/79
f 123/254/60 125/66/60 122/255/60
f 126/257/80 128/67/80 125/66/80
f 128/67/81 127/308/81 119/259/81
f 121/61/59 120/248/59 106/76/59
f 115/68/82 114/309/82 117/245/82
f 112/71/83 111/70/83 127/69/83
f 124/72/61 123/250/61 109/60/61
f 99/18/7 107/238/7 106/237/7
f 106/237/7 114/243/7 99/18/7
f 114/243/7 116/244/7 97/74/7
f 144/276/88 146/279/88 142/83/88
f 147/278/62 149/84/62 146/279/62
f 150/281/89 152/85/89 149/84/89
f 152/85/90 151/310/90 143/282/90
f 151/81/82 150/274/82 163/283/82
f 133/33/59 132/104/59 157/92/59
f 145/87/61 144/270/61 155/42/61
f 139/39/83 138/287/83 167/99/83
f 164/82/82 163/283/82 161/284/82
f 153/86/59 154/90/59 148/89/59
f 156/47/61 155/42/61 159/98/61
f 165/80/83 166/44/83 141/43/83
f 158/46/59 157/92/59 154/90/59
f 168/106/83 167/99/83 166/44/83
f 162/40/82 161/284/82 136/285/82
f 160/34/61 159/98/61 130/286/61
f 130/286/12 159/98/12 167/99/12
