# Blender v2.80 (sub 75) OBJ File: 'Sketchfab_2017_11_16_16_35_38.blend'
# www.blender.org
o Cube
v 2.782653 -1.590088 0.984085
v 2.782653 -1.570008 -1.015814
v 2.782654 0.409811 1.004165
v 2.782654 0.429891 -0.995734
v -2.782654 -1.590086 0.984085
v -2.782654 -1.570006 -1.015814
v -2.782653 0.409813 1.004165
v -2.782653 0.429893 -0.995734
v -2.283859 -1.302971 -1.013133
v -2.323135 -1.570007 -1.015814
v -2.283859 -1.323051 0.986766
v 2.323135 -1.570008 -1.015814
v 2.323135 -1.590088 0.984085
v 2.283858 -1.302971 -1.013133
v 2.283858 -1.323051 0.986766
v -2.323135 -1.590086 0.984085
v 2.151347 -1.010458 -1.010196
v 2.151347 -1.030538 0.989703
v -2.151348 -1.010458 -1.010196
v -2.151348 -1.030538 0.989703
v 1.936160 -0.740877 -1.007489
v 1.936160 -0.760957 0.992410
v -1.936162 -0.740877 -1.007489
v -1.936162 -0.760957 0.992410
v -1.646570 -0.504587 -1.005117
v -1.646570 -0.524667 0.994782
v 1.646568 -0.504587 -1.005117
v 1.646568 -0.524667 0.994782
v -1.293702 -0.310669 -1.003170
v -1.293702 -0.330749 0.996729
v 1.293699 -0.310669 -1.003170
v 1.293699 -0.330749 0.996730
v -0.891117 -0.166575 -1.001723
v -0.891117 -0.186655 0.998176
v 0.891114 -0.166575 -1.001723
v 0.891114 -0.186655 0.998176
v -0.454288 -0.077842 -1.000832
v -0.454288 -0.097922 0.999067
v 0.454284 -0.077842 -1.000832
v 0.454284 -0.097922 0.999067
v 0.000000 -0.047881 -1.000531
v 0.000000 -0.067961 0.999368
v -2.782653 0.117750 0.745893
v 2.782654 0.412375 0.748851
v 2.782654 0.117749 0.745893
v -2.782653 0.412376 0.748851
v 2.782654 0.427328 -0.740420
v -2.782653 0.132703 -0.743378
v -2.782653 0.427329 -0.740420
v 2.782654 0.132701 -0.743378
v -2.782653 0.119887 0.533140
v -2.782653 0.122023 0.320387
v -2.782653 0.124159 0.107634
v -2.782653 0.126295 -0.105119
v -2.782653 0.128431 -0.317872
v -2.782653 0.130567 -0.530625
v 2.782654 0.130565 -0.530625
v 2.782654 0.128429 -0.317872
v 2.782654 0.126293 -0.105119
v 2.782654 0.124157 0.107634
v 2.782654 0.122021 0.320387
v 2.782654 0.119885 0.533140
v -2.226122 0.409813 1.004165
v -1.669592 0.409813 1.004165
v -1.113061 0.409812 1.004165
v -0.556530 0.409812 1.004165
v 0.000000 0.409812 1.004165
v 0.556531 0.409812 1.004165
v 1.113062 0.409812 1.004165
v 1.669592 0.409812 1.004165
v 2.226123 0.409811 1.004165
v 2.226123 0.429891 -0.995734
v 1.669592 0.429891 -0.995734
v 1.113062 0.429892 -0.995734
v 0.556531 0.429892 -0.995734
v 0.000000 0.429892 -0.995734
v -0.556530 0.429892 -0.995734
v -1.113061 0.429892 -0.995734
v -1.669592 0.429892 -0.995734
v -2.226122 0.429893 -0.995734
v 2.226123 0.412375 0.748851
v 1.669592 0.412375 0.748851
v 1.113062 0.412375 0.748851
v 0.556531 0.412375 0.748851
v 0.000000 0.412375 0.748851
v -0.556530 0.412376 0.748851
v -1.113061 0.412376 0.748851
v -1.669592 0.412376 0.748851
v -2.226122 0.412376 0.748851
v 2.226123 0.427328 -0.740420
v 1.669592 0.427328 -0.740420
v 1.113062 0.427328 -0.740420
v 0.556531 0.427328 -0.740420
v 0.000000 0.427328 -0.740420
v -0.556530 0.427329 -0.740420
v -1.113061 0.427329 -0.740420
v -1.669592 0.427329 -0.740420
v -2.226122 0.427329 -0.740420
v -2.226123 0.132703 -0.743378
v -1.669592 0.132703 -0.743378
v -1.113061 0.132703 -0.743378
v -0.556530 0.132702 -0.743378
v 0.000000 0.132702 -0.743378
v 0.556531 0.132702 -0.743378
v 1.113062 0.132702 -0.743378
v 1.669592 0.132702 -0.743378
v 2.226123 0.132702 -0.743378
v 2.226123 0.117749 0.745893
v 1.669592 0.117749 0.745893
v 1.113062 0.117749 0.745893
v 0.556531 0.117749 0.745893
v 0.000000 0.117750 0.745893
v -0.556530 0.117750 0.745893
v -1.113061 0.117750 0.745893
v -1.669592 0.117750 0.745893
v -2.226123 0.117750 0.745893
v 2.226123 0.119885 0.533140
v 1.669592 0.119885 0.533140
v 1.113062 0.119885 0.533140
v 0.556531 0.119886 0.533140
v 0.000000 0.119886 0.533140
v -0.556530 0.119886 0.533140
v -1.113061 0.119886 0.533140
v -1.669592 0.119886 0.533140
v -2.226123 0.119886 0.533140
v 2.226123 0.122021 0.320387
v 1.669592 0.122021 0.320387
v 1.113062 0.122021 0.320387
v 0.556531 0.122022 0.320387
v 0.000000 0.122022 0.320387
v -0.556530 0.122022 0.320387
v -1.113061 0.122022 0.320387
v -1.669592 0.122022 0.320387
v -2.226123 0.122023 0.320387
v 2.226123 0.124157 0.107634
v 1.669592 0.124157 0.107634
v 1.113062 0.124158 0.107634
v 0.556531 0.124158 0.107634
v 0.000000 0.124158 0.107634
v -0.556530 0.124158 0.107634
v -1.113061 0.124158 0.107634
v -1.669592 0.124158 0.107634
v -2.226123 0.124159 0.107634
v 2.226123 0.126293 -0.105119
v 1.669592 0.126293 -0.105119
v 1.113062 0.126294 -0.105119
v 0.556531 0.126294 -0.105119
v 0.000000 0.126294 -0.105119
v -0.556530 0.126294 -0.105119
v -1.113061 0.126294 -0.105119
v -1.669592 0.126295 -0.105119
v -2.226123 0.126295 -0.105119
v 2.226123 0.128429 -0.317872
v 1.669592 0.128430 -0.317872
v 1.113062 0.128430 -0.317872
v 0.556531 0.128430 -0.317872
v 0.000000 0.128430 -0.317872
v -0.556530 0.128430 -0.317872
v -1.113061 0.128430 -0.317872
v -1.669592 0.128431 -0.317872
v -2.226123 0.128431 -0.317872
v 2.226123 0.130565 -0.530625
v 1.669592 0.130566 -0.530625
v 1.113062 0.130566 -0.530625
v 0.556531 0.130566 -0.530625
v 0.000000 0.130566 -0.530625
v -0.556530 0.130566 -0.530625
v -1.113061 0.130567 -0.530625
v -1.669592 0.130567 -0.530625
v -2.226123 0.130567 -0.530625
vt 0.183931 0.708507
vt 0.183931 0.730223
vt 0.009381 0.799715
vt 0.637833 0.479591
vt 0.664447 0.422788
vt 0.664446 0.479591
vt 0.407402 0.730223
vt 0.407402 0.751939
vt 0.232851 0.799715
vt 0.615471 0.799715
vt 0.567574 0.595584
vt 0.615471 0.595584
vt 0.071555 0.202247
vt 0.062306 0.246832
vt 0.009381 0.236396
vt 0.382898 0.384151
vt 0.392147 0.339566
vt 0.445072 0.350001
vt 0.520705 0.595584
vt 0.488154 0.799715
vt 0.488154 0.595584
vt 0.637833 0.338843
vt 0.846298 0.297753
vt 0.846298 0.338843
vt 0.456321 0.595584
vt 0.548813 0.799715
vt 0.520705 0.799715
vt 0.637833 0.374859
vt 0.846298 0.374859
vt 0.637833 0.074759
vt 0.846298 0.038743
vt 0.846298 0.074759
vt 0.747593 0.422788
vt 0.775700 0.626919
vt 0.747593 0.626919
vt 0.637833 0.038743
vt 0.846298 0.009186
vt 0.715041 0.422788
vt 0.715041 0.626919
vt 0.637833 0.115849
vt 0.846298 0.115849
vt 0.794462 0.422788
vt 0.842358 0.626919
vt 0.794462 0.626919
vt 0.637833 0.253168
vt 0.846298 0.206801
vt 0.846298 0.253168
vt 0.637833 0.206801
vt 0.846298 0.160434
vt 0.683208 0.422788
vt 0.683208 0.626919
vt 0.637833 0.297753
vt 0.637834 0.404416
vt 0.846298 0.404416
vt 0.990619 0.577212
vt 0.964006 0.520409
vt 0.990619 0.520409
vt 0.914533 0.009186
vt 0.945244 0.065988
vt 0.914533 0.065988
vt 0.895771 0.577212
vt 0.865060 0.520409
vt 0.895771 0.520409
vt 0.486010 0.577212
vt 0.463834 0.520409
vt 0.486010 0.520409
vt 0.619071 0.577212
vt 0.596895 0.520409
vt 0.619071 0.520409
vt 0.596895 0.577212
vt 0.574718 0.520409
vt 0.574718 0.577212
vt 0.552541 0.520409
vt 0.552541 0.577212
vt 0.530364 0.520409
vt 0.530364 0.577212
vt 0.508187 0.520409
vt 0.508187 0.577212
vt 0.508187 0.065988
vt 0.486010 0.009186
vt 0.508187 0.009186
vt 0.486010 0.122791
vt 0.486010 0.065988
vt 0.508187 0.179594
vt 0.508187 0.122791
vt 0.508187 0.236396
vt 0.486010 0.179594
vt 0.508187 0.293199
vt 0.486010 0.236396
vt 0.508187 0.350001
vt 0.486010 0.293199
vt 0.508187 0.406804
vt 0.486010 0.350001
vt 0.508187 0.463607
vt 0.486010 0.406804
vt 0.486010 0.463607
vt 0.530364 0.065988
vt 0.530364 0.009186
vt 0.530364 0.122791
vt 0.530364 0.179594
vt 0.530364 0.236396
vt 0.530364 0.293199
vt 0.530364 0.350001
vt 0.530364 0.406804
vt 0.530364 0.463607
vt 0.552541 0.065988
vt 0.552541 0.009186
vt 0.552541 0.122791
vt 0.552541 0.179594
vt 0.552541 0.236396
vt 0.552541 0.293199
vt 0.552541 0.350001
vt 0.552541 0.406804
vt 0.552541 0.463607
vt 0.574718 0.065988
vt 0.574718 0.009186
vt 0.574718 0.122791
vt 0.574718 0.179594
vt 0.574718 0.236396
vt 0.574718 0.293199
vt 0.574718 0.350001
vt 0.574718 0.406804
vt 0.574718 0.463607
vt 0.596895 0.009186
vt 0.596895 0.122791
vt 0.596895 0.065988
vt 0.596895 0.179594
vt 0.596895 0.236396
vt 0.596895 0.293199
vt 0.596895 0.350001
vt 0.596895 0.406804
vt 0.596895 0.463607
vt 0.619071 0.065988
vt 0.619071 0.009186
vt 0.619071 0.122791
vt 0.619071 0.179594
vt 0.619071 0.236396
vt 0.619071 0.293199
vt 0.619071 0.350001
vt 0.619071 0.406804
vt 0.619071 0.463607
vt 0.463834 0.009186
vt 0.463834 0.065988
vt 0.463834 0.122791
vt 0.463834 0.179594
vt 0.463834 0.236396
vt 0.463834 0.293199
vt 0.463834 0.350001
vt 0.463834 0.406804
vt 0.463834 0.463607
vt 0.895771 0.065989
vt 0.865060 0.009186
vt 0.895771 0.009186
vt 0.895771 0.122791
vt 0.865060 0.065988
vt 0.895771 0.179594
vt 0.865060 0.122791
vt 0.895771 0.236396
vt 0.865060 0.179594
vt 0.895771 0.293199
vt 0.865060 0.236396
vt 0.895771 0.350002
vt 0.865060 0.293199
vt 0.895771 0.406804
vt 0.865060 0.350002
vt 0.895771 0.463607
vt 0.865060 0.406804
vt 0.865060 0.463607
vt 0.914533 0.520409
vt 0.945244 0.577212
vt 0.914533 0.577212
vt 0.914533 0.463607
vt 0.945244 0.520409
vt 0.914533 0.406804
vt 0.945244 0.463607
vt 0.914533 0.350001
vt 0.945244 0.406804
vt 0.914533 0.293199
vt 0.945244 0.350001
vt 0.914533 0.236396
vt 0.945244 0.293199
vt 0.914533 0.179594
vt 0.945244 0.236396
vt 0.914533 0.122791
vt 0.945244 0.179594
vt 0.945244 0.122791
vt 0.990619 0.065988
vt 0.964006 0.009186
vt 0.990619 0.009186
vt 0.990619 0.122791
vt 0.964006 0.065988
vt 0.990619 0.179594
vt 0.964006 0.122791
vt 0.990619 0.236396
vt 0.964006 0.179594
vt 0.990619 0.293199
vt 0.964006 0.236396
vt 0.990619 0.350001
vt 0.964006 0.293199
vt 0.990619 0.406804
vt 0.964006 0.350001
vt 0.990619 0.463607
vt 0.964006 0.406804
vt 0.964006 0.463607
vt 0.637833 0.990814
vt 0.664447 0.934011
vt 0.664447 0.990814
vt 0.637833 0.934011
vt 0.664447 0.877209
vt 0.637833 0.877209
vt 0.664447 0.820406
vt 0.637833 0.820406
vt 0.664447 0.763604
vt 0.637833 0.763604
vt 0.664447 0.706801
vt 0.637833 0.706801
vt 0.664447 0.649999
vt 0.637833 0.649998
vt 0.664447 0.593196
vt 0.637833 0.593196
vt 0.664446 0.536393
vt 0.637833 0.536393
vt 0.009381 0.595584
vt 0.214089 0.595584
vt 0.183931 0.621644
vt 0.214089 0.621644
vt 0.214089 0.773655
vt 0.214089 0.799715
vt 0.183931 0.773655
vt 0.183931 0.751939
vt 0.183931 0.643360
vt 0.183931 0.665075
vt 0.183931 0.686791
vt 0.637833 0.422788
vt 0.232851 0.595584
vt 0.437559 0.595584
vt 0.407402 0.621644
vt 0.437559 0.621644
vt 0.407402 0.643360
vt 0.407402 0.665075
vt 0.437559 0.773655
vt 0.437559 0.799715
vt 0.407402 0.773655
vt 0.407402 0.686791
vt 0.407402 0.708507
vt 0.567574 0.799715
vt 0.217845 0.577212
vt 0.009381 0.577212
vt 0.159519 0.512777
vt 0.009381 0.520409
vt 0.131419 0.490814
vt 0.009381 0.463607
vt 0.009381 0.406804
vt 0.086575 0.425241
vt 0.009381 0.350002
vt 0.071555 0.384151
vt 0.062306 0.339566
vt 0.106789 0.461257
vt 0.190010 0.526302
vt 0.217845 0.530311
vt 0.009381 0.293199
vt 0.009381 0.179594
vt 0.009381 0.122791
vt 0.086575 0.161157
vt 0.059183 0.293199
vt 0.009381 0.065989
vt 0.106789 0.125141
vt 0.009381 0.009186
vt 0.131419 0.095584
vt 0.159519 0.073620
vt 0.217845 0.009186
vt 0.217845 0.056087
vt 0.190010 0.060096
vt 0.236607 0.009186
vt 0.445072 0.009186
vt 0.294933 0.073620
vt 0.445072 0.065988
vt 0.323034 0.095584
vt 0.445072 0.122791
vt 0.445072 0.179594
vt 0.367877 0.161157
vt 0.445072 0.236396
vt 0.382897 0.202247
vt 0.392147 0.246832
vt 0.347664 0.125141
vt 0.264442 0.060096
vt 0.236607 0.056087
vt 0.445072 0.293199
vt 0.445072 0.406804
vt 0.445072 0.463607
vt 0.367878 0.425241
vt 0.395270 0.293199
vt 0.445072 0.520409
vt 0.347664 0.461257
vt 0.445072 0.577212
vt 0.323034 0.490814
vt 0.294933 0.512777
vt 0.236607 0.577212
vt 0.236607 0.530311
vt 0.264443 0.526302
vt 0.456321 0.799715
vt 0.548813 0.595584
vt 0.775700 0.422788
vt 0.637834 0.009186
vt 0.842358 0.422788
vt 0.637833 0.160434
vt 0.964006 0.577212
vt 0.945244 0.009186
vt 0.865060 0.577212
vt 0.463834 0.577212
vn 1.0000 0.0000 -0.0000
vn 0.0000 0.9999 0.0100
vn -1.0000 0.0000 0.0000
vn -0.0000 -0.9999 -0.0100
vn 0.0000 -0.0100 0.9999
vn 0.0000 0.0100 -0.9999
vn 0.9109 -0.4126 -0.0041
vn 0.3370 -0.9415 -0.0095
vn 0.7816 -0.6238 -0.0063
vn 0.9894 -0.1455 -0.0015
vn 0.4816 -0.8763 -0.0088
vn -0.4816 -0.8763 -0.0088
vn -0.9894 -0.1455 -0.0015
vn -0.6322 -0.7748 -0.0078
vn -0.9109 -0.4126 -0.0041
vn -0.3370 -0.9415 -0.0095
vn 0.0658 -0.9978 -0.0100
vn -0.0658 -0.9978 -0.0100
vn -0.7816 -0.6238 -0.0063
vn -0.1991 -0.9799 -0.0098
vn 0.1991 -0.9799 -0.0098
vn 0.6322 -0.7748 -0.0078
s off
f 60/1/1 61/2/1 1/3/1
f 89/4/2 7/5/2 63/6/2
f 55/7/3 56/8/3 6/9/3
f 6/10/4 16/11/4 5/12/4
f 34/13/5 38/14/5 66/15/5
f 35/16/6 39/17/6 75/18/6
f 11/19/7 19/20/7 20/21/7
f 29/22/8 34/23/8 30/24/8
f 19/20/9 24/25/9 20/21/9
f 11/19/10 10/26/10 9/27/10
f 25/28/11 30/24/11 26/29/11
f 31/30/12 28/31/12 32/32/12
f 14/33/13 13/34/13 15/35/13
f 27/36/14 22/37/14 28/31/14
f 17/38/15 15/35/15 18/39/15
f 35/40/16 32/32/16 36/41/16
f 12/42/4 1/43/4 13/44/4
f 37/45/17 42/46/17 38/47/17
f 41/48/18 40/49/18 42/46/18
f 21/50/19 18/39/19 22/51/19
f 40/49/20 35/40/20 36/41/20
f 33/52/21 38/47/21 34/23/21
f 23/53/22 26/29/22 24/54/22
f 47/55/2 72/56/2 90/57/2
f 43/58/6 89/59/6 116/60/6
f 50/61/5 90/62/5 107/63/5
f 57/64/2 107/65/2 162/66/2
f 45/67/2 117/68/2 108/69/2
f 62/70/2 126/71/2 117/68/2
f 61/72/2 135/73/2 126/71/2
f 60/74/2 144/75/2 135/73/2
f 59/76/2 153/77/2 144/75/2
f 58/78/2 162/66/2 153/77/2
f 161/79/2 56/80/2 55/81/2
f 161/79/2 169/82/2 170/83/2
f 159/84/2 169/82/2 160/85/2
f 158/86/2 168/87/2 159/84/2
f 157/88/2 167/89/2 158/86/2
f 156/90/2 166/91/2 157/88/2
f 155/92/2 165/93/2 156/90/2
f 154/94/2 164/95/2 155/92/2
f 153/77/2 163/96/2 154/94/2
f 152/97/2 55/81/2 54/98/2
f 151/99/2 161/79/2 152/97/2
f 150/100/2 160/85/2 151/99/2
f 149/101/2 159/84/2 150/100/2
f 148/102/2 158/86/2 149/101/2
f 147/103/2 157/88/2 148/102/2
f 146/104/2 156/90/2 147/103/2
f 145/105/2 155/92/2 146/104/2
f 144/75/2 154/94/2 145/105/2
f 143/106/2 54/98/2 53/107/2
f 142/108/2 152/97/2 143/106/2
f 141/109/2 151/99/2 142/108/2
f 140/110/2 150/100/2 141/109/2
f 139/111/2 149/101/2 140/110/2
f 138/112/2 148/102/2 139/111/2
f 137/113/2 147/103/2 138/112/2
f 136/114/2 146/104/2 137/113/2
f 135/73/2 145/105/2 136/114/2
f 134/115/2 53/107/2 52/116/2
f 133/117/2 143/106/2 134/115/2
f 132/118/2 142/108/2 133/117/2
f 131/119/2 141/109/2 132/118/2
f 130/120/2 140/110/2 131/119/2
f 129/121/2 139/111/2 130/120/2
f 128/122/2 138/112/2 129/121/2
f 127/123/2 137/113/2 128/122/2
f 126/71/2 136/114/2 127/123/2
f 51/124/2 134/115/2 52/116/2
f 124/125/2 134/115/2 125/126/2
f 123/127/2 133/117/2 124/125/2
f 122/128/2 132/118/2 123/127/2
f 121/129/2 131/119/2 122/128/2
f 120/130/2 130/120/2 121/129/2
f 119/131/2 129/121/2 120/130/2
f 118/132/2 128/122/2 119/131/2
f 117/68/2 127/123/2 118/132/2
f 116/133/2 51/124/2 43/134/2
f 115/135/2 125/126/2 116/133/2
f 114/136/2 124/125/2 115/135/2
f 113/137/2 123/127/2 114/136/2
f 112/138/2 122/128/2 113/137/2
f 111/139/2 121/129/2 112/138/2
f 110/140/2 120/130/2 111/139/2
f 109/141/2 119/131/2 110/140/2
f 108/69/2 118/132/2 109/141/2
f 170/83/2 48/142/2 56/80/2
f 169/82/2 99/143/2 170/83/2
f 168/87/2 100/144/2 169/82/2
f 167/89/2 101/145/2 168/87/2
f 166/91/2 102/146/2 167/89/2
f 165/93/2 103/147/2 166/91/2
f 164/95/2 104/148/2 165/93/2
f 163/96/2 105/149/2 164/95/2
f 162/66/2 106/150/2 163/96/2
f 99/151/5 49/152/5 48/153/5
f 100/154/5 98/155/5 99/151/5
f 101/156/5 97/157/5 100/154/5
f 102/158/5 96/159/5 101/156/5
f 103/160/5 95/161/5 102/158/5
f 104/162/5 94/163/5 103/160/5
f 105/164/5 93/165/5 104/162/5
f 106/166/5 92/167/5 105/164/5
f 107/63/5 91/168/5 106/166/5
f 108/169/6 44/170/6 45/171/6
f 109/172/6 81/173/6 108/169/6
f 110/174/6 82/175/6 109/172/6
f 111/176/6 83/177/6 110/174/6
f 112/178/6 84/179/6 111/176/6
f 113/180/6 85/181/6 112/178/6
f 114/182/6 86/183/6 113/180/6
f 115/184/6 87/185/6 114/182/6
f 116/60/6 88/186/6 115/184/6
f 98/187/2 8/188/2 49/189/2
f 97/190/2 80/191/2 98/187/2
f 96/192/2 79/193/2 97/190/2
f 95/194/2 78/195/2 96/192/2
f 94/196/2 77/197/2 95/194/2
f 93/198/2 76/199/2 94/196/2
f 92/200/2 75/201/2 93/198/2
f 91/202/2 74/203/2 92/200/2
f 90/57/2 73/204/2 91/202/2
f 44/205/2 71/206/2 3/207/2
f 81/208/2 70/209/2 71/206/2
f 82/210/2 69/211/2 70/209/2
f 83/212/2 68/213/2 69/211/2
f 84/214/2 67/215/2 68/213/2
f 85/216/2 66/217/2 67/215/2
f 86/218/2 65/219/2 66/217/2
f 87/220/2 64/221/2 65/219/2
f 88/222/2 63/6/2 64/221/2
f 2/223/1 4/224/1 50/225/1
f 4/224/1 47/226/1 50/225/1
f 44/227/1 3/228/1 45/229/1
f 3/228/1 1/3/1 45/229/1
f 61/2/1 62/230/1 1/3/1
f 62/230/1 45/229/1 1/3/1
f 1/3/1 2/223/1 60/1/1
f 2/223/1 50/225/1 57/231/1
f 57/231/1 58/232/1 2/223/1
f 58/232/1 59/233/1 2/223/1
f 2/223/1 59/233/1 60/1/1
f 89/4/2 46/234/2 7/5/2
f 5/235/3 7/236/3 43/237/3
f 7/236/3 46/238/3 43/237/3
f 43/237/3 51/239/3 5/235/3
f 51/239/3 52/240/3 5/235/3
f 49/241/3 8/242/3 48/243/3
f 8/242/3 6/9/3 48/243/3
f 6/9/3 5/235/3 53/244/3
f 53/244/3 5/235/3 52/240/3
f 53/244/3 54/245/3 6/9/3
f 54/245/3 55/7/3 6/9/3
f 56/8/3 48/243/3 6/9/3
f 6/10/4 10/246/4 16/11/4
f 1/247/5 3/248/5 18/249/5
f 3/248/5 71/250/5 22/251/5
f 18/249/5 3/248/5 22/251/5
f 70/252/5 69/253/5 32/254/5
f 69/253/5 68/255/5 36/256/5
f 36/256/5 68/255/5 40/257/5
f 71/250/5 70/252/5 28/258/5
f 15/259/5 13/260/5 1/247/5
f 18/249/5 15/259/5 1/247/5
f 68/255/5 67/261/5 40/257/5
f 66/15/5 65/262/5 34/13/5
f 65/262/5 64/263/5 30/264/5
f 38/14/5 67/261/5 66/15/5
f 40/257/5 67/261/5 42/265/5
f 64/263/5 63/266/5 26/267/5
f 63/266/5 7/268/5 24/269/5
f 20/270/5 7/268/5 5/271/5
f 67/261/5 38/14/5 42/265/5
f 7/268/5 20/270/5 24/269/5
f 5/271/5 16/272/5 11/273/5
f 5/271/5 11/273/5 20/270/5
f 22/251/5 71/250/5 28/258/5
f 63/266/5 24/269/5 26/267/5
f 32/254/5 28/258/5 70/252/5
f 64/263/5 26/267/5 30/264/5
f 36/256/5 32/254/5 69/253/5
f 30/264/5 34/13/5 65/262/5
f 6/274/6 8/275/6 19/276/6
f 8/275/6 80/277/6 23/278/6
f 19/276/6 8/275/6 23/278/6
f 79/279/6 78/280/6 29/281/6
f 78/280/6 77/282/6 33/283/6
f 33/283/6 77/282/6 37/284/6
f 80/277/6 79/279/6 25/285/6
f 9/286/6 10/287/6 6/274/6
f 19/276/6 9/286/6 6/274/6
f 77/282/6 76/288/6 37/284/6
f 75/18/6 74/289/6 35/16/6
f 74/289/6 73/290/6 31/291/6
f 39/17/6 76/288/6 75/18/6
f 37/284/6 76/288/6 41/292/6
f 73/290/6 72/293/6 27/294/6
f 72/293/6 4/295/6 21/296/6
f 17/297/6 4/295/6 2/298/6
f 76/288/6 39/17/6 41/292/6
f 4/295/6 17/297/6 21/296/6
f 2/298/6 12/299/6 14/300/6
f 2/298/6 14/300/6 17/297/6
f 23/278/6 80/277/6 25/285/6
f 72/293/6 21/296/6 27/294/6
f 29/281/6 25/285/6 79/279/6
f 73/290/6 27/294/6 31/291/6
f 33/283/6 29/281/6 78/280/6
f 31/291/6 35/16/6 74/289/6
f 11/19/7 9/27/7 19/20/7
f 29/22/8 33/52/8 34/23/8
f 19/20/9 23/301/9 24/25/9
f 11/19/10 16/302/10 10/26/10
f 25/28/11 29/22/11 30/24/11
f 31/30/12 27/36/12 28/31/12
f 14/33/13 12/303/13 13/34/13
f 27/36/14 21/304/14 22/37/14
f 17/38/15 14/33/15 15/35/15
f 35/40/16 31/30/16 32/32/16
f 12/42/4 2/305/4 1/43/4
f 37/45/17 41/48/17 42/46/17
f 41/48/18 39/306/18 40/49/18
f 21/50/19 17/38/19 18/39/19
f 40/49/20 39/306/20 35/40/20
f 33/52/21 37/45/21 38/47/21
f 23/53/22 25/28/22 26/29/22
f 47/55/2 4/307/2 72/56/2
f 43/58/6 46/308/6 89/59/6
f 50/61/5 47/309/5 90/62/5
f 57/64/2 50/310/2 107/65/2
f 45/67/2 62/70/2 117/68/2
f 62/70/2 61/72/2 126/71/2
f 61/72/2 60/74/2 135/73/2
f 60/74/2 59/76/2 144/75/2
f 59/76/2 58/78/2 153/77/2
f 58/78/2 57/64/2 162/66/2
f 161/79/2 170/83/2 56/80/2
f 161/79/2 160/85/2 169/82/2
f 159/84/2 168/87/2 169/82/2
f 158/86/2 167/89/2 168/87/2
f 157/88/2 166/91/2 167/89/2
f 156/90/2 165/93/2 166/91/2
f 155/92/2 164/95/2 165/93/2
f 154/94/2 163/96/2 164/95/2
f 153/77/2 162/66/2 163/96/2
f 152/97/2 161/79/2 55/81/2
f 151/99/2 160/85/2 161/79/2
f 150/100/2 159/84/2 160/85/2
f 149/101/2 158/86/2 159/84/2
f 148/102/2 157/88/2 158/86/2
f 147/103/2 156/90/2 157/88/2
f 146/104/2 155/92/2 156/90/2
f 145/105/2 154/94/2 155/92/2
f 144/75/2 153/77/2 154/94/2
f 143/106/2 152/97/2 54/98/2
f 142/108/2 151/99/2 152/97/2
f 141/109/2 150/100/2 151/99/2
f 140/110/2 149/101/2 150/100/2
f 139/111/2 148/102/2 149/101/2
f 138/112/2 147/103/2 148/102/2
f 137/113/2 146/104/2 147/103/2
f 136/114/2 145/105/2 146/104/2
f 135/73/2 144/75/2 145/105/2
f 134/115/2 143/106/2 53/107/2
f 133/117/2 142/108/2 143/106/2
f 132/118/2 141/109/2 142/108/2
f 131/119/2 140/110/2 141/109/2
f 130/120/2 139/111/2 140/110/2
f 129/121/2 138/112/2 139/111/2
f 128/122/2 137/113/2 138/112/2
f 127/123/2 136/114/2 137/113/2
f 126/71/2 135/73/2 136/114/2
f 51/124/2 125/126/2 134/115/2
f 124/125/2 133/117/2 134/115/2
f 123/127/2 132/118/2 133/117/2
f 122/128/2 131/119/2 132/118/2
f 121/129/2 130/120/2 131/119/2
f 120/130/2 129/121/2 130/120/2
f 119/131/2 128/122/2 129/121/2
f 118/132/2 127/123/2 128/122/2
f 117/68/2 126/71/2 127/123/2
f 116/133/2 125/126/2 51/124/2
f 115/135/2 124/125/2 125/126/2
f 114/136/2 123/127/2 124/125/2
f 113/137/2 122/128/2 123/127/2
f 112/138/2 121/129/2 122/128/2
f 111/139/2 120/130/2 121/129/2
f 110/140/2 119/131/2 120/130/2
f 109/141/2 118/132/2 119/131/2
f 108/69/2 117/68/2 118/132/2
f 170/83/2 99/143/2 48/142/2
f 169/82/2 100/144/2 99/143/2
f 168/87/2 101/145/2 100/144/2
f 167/89/2 102/146/2 101/145/2
f 166/91/2 103/147/2 102/146/2
f 165/93/2 104/148/2 103/147/2
f 164/95/2 105/149/2 104/148/2
f 163/96/2 106/150/2 105/149/2
f 162/66/2 107/65/2 106/150/2
f 99/151/5 98/155/5 49/152/5
f 100/154/5 97/157/5 98/155/5
f 101/156/5 96/159/5 97/157/5
f 102/158/5 95/161/5 96/159/5
f 103/160/5 94/163/5 95/161/5
f 104/162/5 93/165/5 94/163/5
f 105/164/5 92/167/5 93/165/5
f 106/166/5 91/168/5 92/167/5
f 107/63/5 90/62/5 91/168/5
f 108/169/6 81/173/6 44/170/6
f 109/172/6 82/175/6 81/173/6
f 110/174/6 83/177/6 82/175/6
f 111/176/6 84/179/6 83/177/6
f 112/178/6 85/181/6 84/179/6
f 113/180/6 86/183/6 85/181/6
f 114/182/6 87/185/6 86/183/6
f 115/184/6 88/186/6 87/185/6
f 116/60/6 89/59/6 88/186/6
f 98/187/2 80/191/2 8/188/2
f 97/190/2 79/193/2 80/191/2
f 96/192/2 78/195/2 79/193/2
f 95/194/2 77/197/2 78/195/2
f 94/196/2 76/199/2 77/197/2
f 93/198/2 75/201/2 76/199/2
f 92/200/2 74/203/2 75/201/2
f 91/202/2 73/204/2 74/203/2
f 90/57/2 72/56/2 73/204/2
f 44/205/2 81/208/2 71/206/2
f 81/208/2 82/210/2 70/209/2
f 82/210/2 83/212/2 69/211/2
f 83/212/2 84/214/2 68/213/2
f 84/214/2 85/216/2 67/215/2
f 85/216/2 86/218/2 66/217/2
f 86/218/2 87/220/2 65/219/2
f 87/220/2 88/222/2 64/221/2
f 88/222/2 89/4/2 63/6/2
