# Blender v2.80 (sub 75) OBJ File: ''
# www.blender.org
o Cube
v 6.814106 1.000000 -1.000000
v 6.814106 -1.000000 -1.000000
v 6.814106 1.000000 1.000000
v 6.814106 -1.000000 1.000000
v -6.814106 1.000000 -1.000000
v -6.814106 -1.000000 -1.000000
v -6.814106 1.000000 1.000000
v -6.814106 -1.000000 1.000000
vt 0.986910 0.013237
vt 0.013090 0.987058
vt 0.013090 0.013237
vt 0.000100 0.000100
vt 0.999900 0.999900
vt 0.000100 0.999900
vt 0.996534 0.007550
vt 0.009666 0.994418
vt 0.009666 0.007550
vt 0.991801 0.004951
vt 0.008199 0.988553
vt 0.008199 0.004951
vt 0.998922 0.003194
vt 0.003341 0.998775
vt 0.003341 0.003194
vt 0.000000 1.000000
vt 1.000000 0.000000
vt 0.000000 0.000000
vt 0.986910 0.987058
vt 0.999900 0.000100
vt 0.996534 0.994418
vt 0.991801 0.988553
vt 0.998922 0.998775
vt 1.000000 1.000000
vn 0.0000 1.0000 0.0000
vn 0.0000 0.0000 1.0000
vn -1.0000 0.0000 0.0000
vn 0.0000 -1.0000 0.0000
vn 1.0000 0.0000 0.0000
vn 0.0000 0.0000 -1.0000
s off
f 5/1/1 3/2/1 1/3/1
f 3/4/2 8/5/2 4/6/2
f 7/7/3 6/8/3 8/9/3
f 2/10/4 8/11/4 6/12/4
f 1/13/5 4/14/5 2/15/5
f 5/16/6 2/17/6 6/18/6
f 5/1/1 7/19/1 3/2/1
f 3/4/2 7/20/2 8/5/2
f 7/7/3 5/21/3 6/8/3
f 2/10/4 4/22/4 8/11/4
f 1/13/5 3/23/5 4/14/5
f 5/16/6 1/24/6 2/17/6
