# MagicaVoxel @ Ephtracy

# group
g 2

# material
mtllib 2.mtl
usemtl palette

# normals
vn -1 0 0
vn 1 0 0
vn 0 0 1
vn 0 0 -1
vn 0 -1 0
vn 0 1 0

# texcoords
vt 0.185547 0.5
vt 0.216797 0.5
vt 0.302734 0.5
vt 0.306641 0.5
vt 0.310547 0.5

# verts
v -2.5 1 4
v -2.5 1 1
v -2.5 2 5
v -2.5 2 4
v -2.5 2 1
v -2.5 2 -0
v -2.5 3 5
v -2.5 3 -0
v -2.5 8 4
v -2.5 8 1
v -2.5 9 5
v -2.5 9 4
v -2.5 9 1
v -2.5 9 -0
v -2.5 10 5
v -2.5 10 4
v -2.5 10 -0
v -1.5 0 4
v -1.5 0 1
v -1.5 1 5
v -1.5 1 4
v -1.5 1 1
v -1.5 1 -0
v -1.5 2 5
v -1.5 2 4
v -1.5 2 1
v -1.5 2 -0
v -1.5 3 4
v -1.5 3 1
v -1.5 7 4
v -1.5 7 1
v -1.5 8 5
v -1.5 8 4
v -1.5 8 1
v -1.5 8 -0
v -1.5 9 5
v -1.5 9 4
v -1.5 9 1
v -1.5 9 -0
v -1.5 10 4
v -1.5 10 1
v -1.5 11 4
v -1.5 11 1
v -0.5 8 -0
v -0.5 8 -1
v -0.5 9 -0
v -0.5 9 -1
v -0.5 9 -4
v -0.5 9 -5
v -0.5 10 -0
v -0.5 10 -1
v -0.5 10 -3
v -0.5 11 -0
v -0.5 11 -1
v -0.5 11 -2
v -0.5 11 -3
v -0.5 11 -4
v -0.5 11 -5
v -0.5 12 -2
v -0.5 12 -3
v -0.5 12 -4
v 0.5 8 -0
v 0.5 8 -1
v 0.5 9 -0
v 0.5 9 -1
v 0.5 9 -4
v 0.5 9 -5
v 0.5 10 -0
v 0.5 10 -1
v 0.5 10 -3
v 0.5 11 -0
v 0.5 11 -1
v 0.5 11 -2
v 0.5 11 -3
v 0.5 11 -4
v 0.5 11 -5
v 0.5 12 -2
v 0.5 12 -3
v 0.5 12 -4
v 1.5 0 4
v 1.5 0 1
v 1.5 1 5
v 1.5 1 4
v 1.5 1 1
v 1.5 1 -0
v 1.5 2 5
v 1.5 2 4
v 1.5 2 1
v 1.5 2 -0
v 1.5 3 4
v 1.5 3 3
v 1.5 3 1
v 1.5 7 4
v 1.5 7 1
v 1.5 8 5
v 1.5 8 4
v 1.5 8 1
v 1.5 8 -0
v 1.5 9 5
v 1.5 9 4
v 1.5 9 1
v 1.5 9 -0
v 1.5 10 4
v 1.5 10 1
v 1.5 11 4
v 1.5 11 1
v 2.5 1 4
v 2.5 1 1
v 2.5 2 5
v 2.5 2 4
v 2.5 2 3
v 2.5 2 1
v 2.5 2 -0
v 2.5 3 5
v 2.5 3 3
v 2.5 3 1
v 2.5 3 -0
v 2.5 8 4
v 2.5 8 1
v 2.5 9 5
v 2.5 9 4
v 2.5 9 1
v 2.5 9 -0
v 2.5 10 5
v 2.5 10 -0
v -2.5 2 5
v -2.5 3 5
v -2.5 9 5
v -2.5 10 5
v -1.5 1 5
v -1.5 2 5
v -1.5 8 5
v -1.5 9 5
v -0.5 1 5
v -0.5 3 5
v 0.5 2 5
v 0.5 3 5
v 1.5 1 5
v 1.5 2 5
v 1.5 8 5
v 1.5 9 5
v 1.5 10 5
v 2.5 2 5
v 2.5 3 5
v 2.5 9 5
v 2.5 10 5
v -2.5 1 4
v -2.5 2 4
v -2.5 8 4
v -2.5 9 4
v -1.5 0 4
v -1.5 1 4
v -1.5 2 4
v -1.5 3 4
v -1.5 7 4
v -1.5 8 4
v -1.5 9 4
v -1.5 10 4
v -1.5 11 4
v -0.5 1 4
v -0.5 3 4
v -0.5 10 4
v -0.5 11 4
v 0.5 3 4
v 1.5 0 4
v 1.5 1 4
v 1.5 2 4
v 1.5 3 4
v 1.5 7 4
v 1.5 8 4
v 1.5 9 4
v 1.5 10 4
v 1.5 11 4
v 2.5 1 4
v 2.5 2 4
v 2.5 8 4
v 2.5 9 4
v -0.5 10 -0
v -0.5 11 -0
v 0.5 10 -0
v 0.5 11 -0
v -0.5 11 -2
v -0.5 12 -2
v 0.5 11 -2
v 0.5 12 -2
v -0.5 9 -4
v -0.5 11 -4
v 0.5 9 -4
v 0.5 11 -4
v -2.5 1 1
v -2.5 2 1
v -2.5 8 1
v -2.5 9 1
v -1.5 0 1
v -1.5 1 1
v -1.5 2 1
v -1.5 3 1
v -1.5 7 1
v -1.5 8 1
v -1.5 9 1
v -1.5 10 1
v -1.5 11 1
v -0.5 10 1
v -0.5 11 1
v 1.5 0 1
v 1.5 1 1
v 1.5 2 1
v 1.5 3 1
v 1.5 7 1
v 1.5 8 1
v 1.5 9 1
v 1.5 10 1
v 1.5 11 1
v 2.5 1 1
v 2.5 2 1
v 2.5 8 1
v 2.5 9 1
v -2.5 2 -0
v -2.5 3 -0
v -2.5 9 -0
v -2.5 10 -0
v -1.5 1 -0
v -1.5 2 -0
v -1.5 8 -0
v -1.5 9 -0
v -0.5 8 -0
v -0.5 9 -0
v -0.5 10 -0
v 0.5 8 -0
v 0.5 9 -0
v 0.5 10 -0
v 1.5 1 -0
v 1.5 2 -0
v 1.5 8 -0
v 1.5 9 -0
v 2.5 2 -0
v 2.5 3 -0
v 2.5 9 -0
v 2.5 10 -0
v -0.5 8 -1
v -0.5 9 -1
v -0.5 10 -1
v 0.5 8 -1
v 0.5 9 -1
v 0.5 10 -1
v -0.5 10 -3
v -0.5 11 -3
v 0.5 10 -3
v 0.5 11 -3
v -0.5 11 -4
v -0.5 12 -4
v 0.5 11 -4
v 0.5 12 -4
v -0.5 9 -5
v -0.5 11 -5
v 0.5 9 -5
v 0.5 11 -5
v -1.5 0 4
v 1.5 0 4
v -1.5 0 1
v 1.5 0 1
v -1.5 1 5
v -0.5 1 5
v 1.5 1 5
v -2.5 1 4
v -1.5 1 4
v -0.5 1 4
v 1.5 1 4
v 2.5 1 4
v -2.5 1 1
v -1.5 1 1
v 1.5 1 1
v 2.5 1 1
v -1.5 1 -0
v 1.5 1 -0
v -2.5 2 5
v -1.5 2 5
v 1.5 2 5
v 2.5 2 5
v -2.5 2 4
v -1.5 2 4
v 1.5 2 4
v 2.5 2 4
v -2.5 2 1
v -1.5 2 1
v 1.5 2 1
v 2.5 2 1
v -2.5 2 -0
v -1.5 2 -0
v 1.5 2 -0
v 2.5 2 -0
v -1.5 8 5
v 1.5 8 5
v -2.5 8 4
v -1.5 8 4
v 1.5 8 4
v 2.5 8 4
v -2.5 8 1
v -1.5 8 1
v 1.5 8 1
v 2.5 8 1
v -1.5 8 -0
v -0.5 8 -0
v 0.5 8 -0
v 1.5 8 -0
v -0.5 8 -1
v 0.5 8 -1
v -2.5 9 5
v -1.5 9 5
v 1.5 9 5
v 2.5 9 5
v -2.5 9 4
v -1.5 9 4
v 1.5 9 4
v 2.5 9 4
v -2.5 9 1
v -1.5 9 1
v 1.5 9 1
v 2.5 9 1
v -2.5 9 -0
v -1.5 9 -0
v 1.5 9 -0
v 2.5 9 -0
v -0.5 9 -4
v 0.5 9 -4
v -0.5 9 -5
v 0.5 9 -5
v -0.5 10 -1
v 0.5 10 -1
v -0.5 10 -3
v 0.5 10 -3
v -0.5 11 -3
v 0.5 11 -3
v -0.5 11 -4
v 0.5 11 -4
v -2.5 3 5
v -0.5 3 5
v 0.5 3 5
v 2.5 3 5
v -1.5 3 4
v -0.5 3 4
v 0.5 3 4
v 1.5 3 4
v 1.5 3 3
v 2.5 3 3
v -1.5 3 1
v 1.5 3 1
v 2.5 3 1
v -2.5 3 -0
v 2.5 3 -0
v -2.5 10 5
v 1.5 10 5
v 2.5 10 5
v -2.5 10 4
v -1.5 10 4
v -0.5 10 4
v 1.5 10 4
v -1.5 10 1
v -0.5 10 1
v 1.5 10 1
v -2.5 10 -0
v -0.5 10 -0
v 0.5 10 -0
v 2.5 10 -0
v -1.5 11 4
v -0.5 11 4
v 1.5 11 4
v -1.5 11 1
v -0.5 11 1
v 1.5 11 1
v -0.5 11 -0
v 0.5 11 -0
v -0.5 11 -1
v 0.5 11 -1
v -0.5 11 -2
v 0.5 11 -2
v -0.5 11 -4
v 0.5 11 -4
v -0.5 11 -5
v 0.5 11 -5
v -0.5 12 -2
v 0.5 12 -2
v -0.5 12 -3
v 0.5 12 -3
v -0.5 12 -4
v 0.5 12 -4

# faces
f 4/4/1 2/4/1 1/4/1
f 5/4/1 2/4/1 4/4/1
f 7/4/1 4/4/1 3/4/1
f 7/4/1 6/4/1 5/4/1
f 7/4/1 5/4/1 4/4/1
f 8/4/1 6/4/1 7/4/1
f 12/4/1 10/4/1 9/4/1
f 13/4/1 10/4/1 12/4/1
f 15/3/1 12/3/1 11/3/1
f 16/4/1 14/4/1 13/4/1
f 16/3/1 12/3/1 15/3/1
f 16/4/1 13/4/1 12/4/1
f 17/4/1 14/4/1 16/4/1
f 21/5/1 19/5/1 18/5/1
f 22/5/1 19/5/1 21/5/1
f 24/4/1 21/4/1 20/4/1
f 25/4/1 21/4/1 24/4/1
f 26/4/1 23/4/1 22/4/1
f 27/4/1 23/4/1 26/4/1
f 30/2/1 29/2/1 28/2/1
f 31/2/1 29/2/1 30/2/1
f 33/1/1 31/1/1 30/1/1
f 34/1/1 31/1/1 33/1/1
f 36/4/1 33/4/1 32/4/1
f 37/4/1 33/4/1 36/4/1
f 38/4/1 35/4/1 34/4/1
f 39/4/1 35/4/1 38/4/1
f 42/3/1 41/3/1 40/3/1
f 43/3/1 41/3/1 42/3/1
f 46/4/1 45/4/1 44/4/1
f 47/4/1 45/4/1 46/4/1
f 50/3/1 47/3/1 46/3/1
f 51/3/1 47/3/1 50/3/1
f 53/3/1 51/3/1 50/3/1
f 54/4/1 52/4/1 51/4/1
f 54/3/1 51/3/1 53/3/1
f 55/4/1 52/4/1 54/4/1
f 56/4/1 52/4/1 55/4/1
f 57/3/1 49/3/1 48/3/1
f 58/3/1 49/3/1 57/3/1
f 59/4/1 56/4/1 55/4/1
f 60/3/1 57/3/1 56/3/1
f 60/4/1 56/4/1 59/4/1
f 61/3/1 57/3/1 60/3/1
f 62/4/2 63/4/2 64/4/2
f 64/4/2 63/4/2 65/4/2
f 64/3/2 65/3/2 68/3/2
f 68/3/2 65/3/2 69/3/2
f 68/3/2 69/3/2 71/3/2
f 69/4/2 70/4/2 72/4/2
f 71/3/2 69/3/2 72/3/2
f 72/4/2 70/4/2 73/4/2
f 73/4/2 70/4/2 74/4/2
f 66/3/2 67/3/2 75/3/2
f 75/3/2 67/3/2 76/3/2
f 73/4/2 74/4/2 77/4/2
f 74/3/2 75/3/2 78/3/2
f 77/4/2 74/4/2 78/4/2
f 78/3/2 75/3/2 79/3/2
f 80/5/2 81/5/2 83/5/2
f 83/5/2 81/5/2 84/5/2
f 82/3/2 83/3/2 86/3/2
f 86/3/2 83/3/2 87/3/2
f 84/4/2 85/4/2 88/4/2
f 88/4/2 85/4/2 89/4/2
f 90/2/2 91/2/2 93/2/2
f 91/2/2 92/2/2 93/2/2
f 93/2/2 92/2/2 94/2/2
f 93/1/2 94/1/2 96/1/2
f 96/1/2 94/1/2 97/1/2
f 95/4/2 96/4/2 99/4/2
f 99/4/2 96/4/2 100/4/2
f 97/4/2 98/4/2 101/4/2
f 101/4/2 98/4/2 102/4/2
f 103/4/2 104/4/2 105/4/2
f 105/4/2 104/4/2 106/4/2
f 107/3/2 108/3/2 110/3/2
f 110/3/2 108/3/2 111/3/2
f 111/3/2 108/3/2 112/3/2
f 109/4/2 110/4/2 114/4/2
f 110/4/2 111/4/2 114/4/2
f 111/3/2 112/3/2 115/3/2
f 114/4/2 111/4/2 115/4/2
f 112/4/2 113/4/2 116/4/2
f 115/3/2 112/3/2 116/3/2
f 116/4/2 113/4/2 117/4/2
f 118/4/2 119/4/2 121/4/2
f 121/4/2 119/4/2 122/4/2
f 120/4/2 121/4/2 124/4/2
f 122/4/2 123/4/2 124/4/2
f 121/4/2 122/4/2 124/4/2
f 124/4/2 123/4/2 125/4/2
f 131/4/3 127/4/3 126/4/3
f 133/3/3 129/3/3 128/3/3
f 134/4/3 131/4/3 130/4/3
f 135/4/3 127/4/3 131/4/3
f 135/4/3 131/4/3 134/4/3
f 136/3/3 135/3/3 134/3/3
f 137/3/3 135/3/3 136/3/3
f 138/3/3 136/3/3 134/3/3
f 139/4/3 137/4/3 136/4/3
f 139/3/3 136/3/3 138/3/3
f 140/4/3 133/4/3 132/4/3
f 141/3/3 129/3/3 133/3/3
f 141/4/3 133/4/3 140/4/3
f 142/3/3 129/3/3 141/3/3
f 143/4/3 137/4/3 139/4/3
f 144/4/3 137/4/3 143/4/3
f 145/4/3 142/4/3 141/4/3
f 146/4/3 142/4/3 145/4/3
f 152/4/3 148/4/3 147/4/3
f 153/4/3 148/4/3 152/4/3
f 156/4/3 150/4/3 149/4/3
f 157/4/3 150/4/3 156/4/3
f 160/5/3 152/5/3 151/5/3
f 161/2/3 155/2/3 154/2/3
f 162/3/3 159/3/3 158/3/3
f 163/3/3 159/3/3 162/3/3
f 164/2/3 155/2/3 161/2/3
f 165/5/3 160/5/3 151/5/3
f 166/5/3 160/5/3 165/5/3
f 168/2/3 155/2/3 164/2/3
f 169/1/3 156/1/3 155/1/3
f 169/2/3 155/2/3 168/2/3
f 170/1/3 156/1/3 169/1/3
f 172/4/3 163/4/3 162/4/3
f 173/4/3 163/4/3 172/4/3
f 174/3/3 167/3/3 166/3/3
f 175/3/3 167/3/3 174/3/3
f 176/4/3 171/4/3 170/4/3
f 177/4/3 171/4/3 176/4/3
f 180/3/3 179/3/3 178/3/3
f 181/3/3 179/3/3 180/3/3
f 184/4/3 183/4/3 182/4/3
f 185/4/3 183/4/3 184/4/3
f 188/3/3 187/3/3 186/3/3
f 189/3/3 187/3/3 188/3/3
f 190/4/4 191/4/4 195/4/4
f 195/4/4 191/4/4 196/4/4
f 192/4/4 193/4/4 199/4/4
f 199/4/4 193/4/4 200/4/4
f 201/3/4 202/3/4 203/3/4
f 203/3/4 202/3/4 204/3/4
f 194/5/4 195/5/4 205/5/4
f 205/5/4 195/5/4 206/5/4
f 197/2/4 198/2/4 208/2/4
f 198/1/4 199/1/4 209/1/4
f 208/2/4 198/2/4 209/2/4
f 209/1/4 199/1/4 210/1/4
f 203/4/4 204/4/4 212/4/4
f 212/4/4 204/4/4 213/4/4
f 206/3/4 207/3/4 214/3/4
f 214/3/4 207/3/4 215/3/4
f 210/4/4 211/4/4 216/4/4
f 216/4/4 211/4/4 217/4/4
f 218/4/4 219/4/4 223/4/4
f 220/4/4 221/4/4 225/4/4
f 224/4/4 225/4/4 226/4/4
f 225/4/4 221/4/4 227/4/4
f 226/4/4 225/4/4 227/4/4
f 227/4/4 221/4/4 228/4/4
f 222/4/4 223/4/4 232/4/4
f 223/4/4 219/4/4 233/4/4
f 232/4/4 223/4/4 233/4/4
f 230/4/4 231/4/4 234/4/4
f 229/4/4 230/4/4 234/4/4
f 234/4/4 231/4/4 235/4/4
f 233/4/4 219/4/4 236/4/4
f 236/4/4 219/4/4 237/4/4
f 235/4/4 231/4/4 238/4/4
f 238/4/4 231/4/4 239/4/4
f 240/4/4 241/4/4 243/4/4
f 241/3/4 242/3/4 244/3/4
f 243/4/4 241/4/4 244/4/4
f 244/3/4 242/3/4 245/3/4
f 246/4/4 247/4/4 248/4/4
f 248/4/4 247/4/4 249/4/4
f 250/3/4 251/3/4 252/3/4
f 252/3/4 251/3/4 253/3/4
f 254/3/4 255/3/4 256/3/4
f 256/3/4 255/3/4 257/3/4
f 260/5/5 259/5/5 258/5/5
f 261/5/5 259/5/5 260/5/5
f 266/4/5 263/4/5 262/4/5
f 267/3/5 264/3/5 263/3/5
f 267/4/5 263/4/5 266/4/5
f 268/3/5 264/3/5 267/3/5
f 270/4/5 266/4/5 265/4/5
f 271/4/5 266/4/5 270/4/5
f 272/3/5 269/3/5 268/3/5
f 273/3/5 269/3/5 272/3/5
f 274/4/5 272/4/5 271/4/5
f 275/4/5 272/4/5 274/4/5
f 280/4/5 277/4/5 276/4/5
f 281/4/5 277/4/5 280/4/5
f 282/4/5 279/4/5 278/4/5
f 283/4/5 279/4/5 282/4/5
f 288/4/5 285/4/5 284/4/5
f 289/4/5 285/4/5 288/4/5
f 290/4/5 287/4/5 286/4/5
f 291/4/5 287/4/5 290/4/5
f 295/4/5 293/4/5 292/4/5
f 296/4/5 293/4/5 295/4/5
f 298/4/5 295/4/5 294/4/5
f 299/4/5 295/4/5 298/4/5
f 300/4/5 297/4/5 296/4/5
f 301/4/5 297/4/5 300/4/5
f 302/4/5 300/4/5 299/4/5
f 303/4/5 300/4/5 302/4/5
f 304/4/5 300/4/5 303/4/5
f 305/4/5 300/4/5 304/4/5
f 306/4/5 304/4/5 303/4/5
f 307/4/5 304/4/5 306/4/5
f 312/3/5 309/3/5 308/3/5
f 313/3/5 309/3/5 312/3/5
f 314/4/5 311/4/5 310/4/5
f 315/4/5 311/4/5 314/4/5
f 320/4/5 317/4/5 316/4/5
f 321/4/5 317/4/5 320/4/5
f 322/4/5 319/4/5 318/4/5
f 323/4/5 319/4/5 322/4/5
f 326/3/5 325/3/5 324/3/5
f 327/3/5 325/3/5 326/3/5
f 330/4/5 329/4/5 328/4/5
f 331/4/5 329/4/5 330/4/5
f 334/3/5 333/3/5 332/3/5
f 335/3/5 333/3/5 334/3/5
f 336/4/6 337/4/6 340/4/6
f 337/3/6 338/3/6 341/3/6
f 340/4/6 337/4/6 341/4/6
f 338/4/6 339/4/6 342/4/6
f 341/3/6 338/3/6 342/3/6
f 342/4/6 339/4/6 343/4/6
f 343/4/6 339/4/6 344/4/6
f 344/4/6 339/4/6 345/4/6
f 336/4/6 340/4/6 346/4/6
f 344/3/6 345/3/6 347/3/6
f 347/3/6 345/3/6 348/3/6
f 336/4/6 346/4/6 349/4/6
f 346/4/6 347/4/6 349/4/6
f 347/4/6 348/4/6 349/4/6
f 349/4/6 348/4/6 350/4/6
f 351/3/6 352/3/6 354/3/6
f 354/3/6 352/3/6 355/3/6
f 355/3/6 352/3/6 356/3/6
f 352/4/6 353/4/6 357/4/6
f 356/3/6 352/3/6 357/3/6
f 354/4/6 355/4/6 358/4/6
f 357/4/6 353/4/6 360/4/6
f 358/4/6 359/4/6 361/4/6
f 359/4/6 360/4/6 361/4/6
f 354/4/6 358/4/6 361/4/6
f 361/4/6 360/4/6 362/4/6
f 362/4/6 360/4/6 363/4/6
f 360/4/6 353/4/6 364/4/6
f 363/4/6 360/4/6 364/4/6
f 365/3/6 366/3/6 368/3/6
f 366/4/6 367/4/6 369/4/6
f 368/3/6 366/3/6 369/3/6
f 369/4/6 367/4/6 370/4/6
f 371/3/6 372/3/6 373/3/6
f 373/3/6 372/3/6 374/3/6
f 373/4/6 374/4/6 375/4/6
f 375/4/6 374/4/6 376/4/6
f 377/3/6 378/3/6 379/3/6
f 379/3/6 378/3/6 380/3/6
f 381/4/6 382/4/6 383/4/6
f 383/4/6 382/4/6 384/4/6
f 383/3/6 384/3/6 385/3/6
f 385/3/6 384/3/6 386/3/6
